<mxfile host="app.diagrams.net" modified="2024-01-06T01:55:14.912Z" agent="Mozilla/5.0 (Windows NT 10.0; Win64; x64; rv:121.0) Gecko/20100101 Firefox/121.0" etag="tCXuGTbI_FfsOBMb-xUL" version="22.1.16" type="device">
  <diagram name="PÃ¡gina-1" id="cTQg8CfVpZIRvhcbB6Gg">
    <mxGraphModel dx="2021" dy="716" grid="1" gridSize="10" guides="1" tooltips="1" connect="1" arrows="1" fold="1" page="1" pageScale="1" pageWidth="827" pageHeight="1169" math="0" shadow="0">
      <root>
        <mxCell id="0" />
        <mxCell id="1" parent="0" />
        <mxCell id="lKmiFkmc8dkFFEs9oPCB-9" value="" style="rounded=0;whiteSpace=wrap;html=1;strokeWidth=4;fontSize=16;fontStyle=1;strokeColor=#7EA6E0;" vertex="1" parent="1">
          <mxGeometry x="64" y="159" width="100" height="88" as="geometry" />
        </mxCell>
        <mxCell id="lKmiFkmc8dkFFEs9oPCB-7" value="" style="rounded=0;whiteSpace=wrap;html=1;strokeWidth=4;fontSize=16;fontStyle=1;strokeColor=#7EA6E0;" vertex="1" parent="1">
          <mxGeometry x="34" y="203" width="100" height="88" as="geometry" />
        </mxCell>
        <mxCell id="lKmiFkmc8dkFFEs9oPCB-1" value="&lt;div style=&quot;font-size: 16px;&quot;&gt;SECURITY ACLS &lt;br style=&quot;font-size: 16px;&quot;&gt;&lt;/div&gt;&lt;div style=&quot;font-size: 16px;&quot;&gt;INBOUND AND OUTBOUD&lt;/div&gt;&lt;div style=&quot;font-size: 16px;&quot;&gt;TCAM&lt;br style=&quot;font-size: 16px;&quot;&gt;&lt;/div&gt;" style="rounded=0;whiteSpace=wrap;html=1;strokeWidth=4;fontSize=16;fontStyle=1;strokeColor=#7EA6E0;" vertex="1" parent="1">
          <mxGeometry x="245" y="80" width="330" height="120" as="geometry" />
        </mxCell>
        <mxCell id="lKmiFkmc8dkFFEs9oPCB-4" value="&lt;div&gt;QoS ACLS&lt;/div&gt;&lt;div&gt;CLASSIFICATION AND POLICING&lt;/div&gt;&lt;div&gt;(TCAM)&lt;br&gt;&lt;/div&gt;" style="rounded=0;whiteSpace=wrap;html=1;strokeWidth=4;fontSize=16;fontStyle=1;strokeColor=#7EA6E0;" vertex="1" parent="1">
          <mxGeometry x="246" y="242" width="330" height="120" as="geometry" />
        </mxCell>
        <mxCell id="lKmiFkmc8dkFFEs9oPCB-5" value="&lt;div&gt;L2 FORWARDING TABLE&lt;/div&gt;&lt;div&gt;(CAM)&lt;br&gt;&lt;/div&gt;" style="rounded=0;whiteSpace=wrap;html=1;strokeWidth=4;fontSize=16;fontStyle=1;strokeColor=#7EA6E0;" vertex="1" parent="1">
          <mxGeometry x="246" y="403" width="330" height="120" as="geometry" />
        </mxCell>
        <mxCell id="lKmiFkmc8dkFFEs9oPCB-6" value="&lt;div&gt;INGRESS &lt;br&gt;&lt;/div&gt;&lt;div&gt;QUEUES&lt;br&gt;&lt;/div&gt;" style="rounded=0;whiteSpace=wrap;html=1;strokeWidth=4;fontSize=16;fontStyle=1;strokeColor=#7EA6E0;" vertex="1" parent="1">
          <mxGeometry y="242" width="100" height="88" as="geometry" />
        </mxCell>
        <mxCell id="lKmiFkmc8dkFFEs9oPCB-10" value="" style="endArrow=classic;html=1;rounded=0;strokeWidth=4;strokeColor=#7EA6E0;dashed=1;" edge="1" parent="1">
          <mxGeometry width="50" height="50" relative="1" as="geometry">
            <mxPoint x="170" y="180" as="sourcePoint" />
            <mxPoint x="240" y="120" as="targetPoint" />
          </mxGeometry>
        </mxCell>
        <mxCell id="lKmiFkmc8dkFFEs9oPCB-11" value="" style="endArrow=classic;html=1;rounded=0;strokeWidth=4;strokeColor=#7EA6E0;dashed=1;" edge="1" parent="1">
          <mxGeometry width="50" height="50" relative="1" as="geometry">
            <mxPoint x="140" y="290" as="sourcePoint" />
            <mxPoint x="240" y="290" as="targetPoint" />
          </mxGeometry>
        </mxCell>
        <mxCell id="lKmiFkmc8dkFFEs9oPCB-12" value="" style="endArrow=classic;html=1;rounded=0;strokeWidth=4;strokeColor=#7EA6E0;dashed=1;" edge="1" parent="1">
          <mxGeometry width="50" height="50" relative="1" as="geometry">
            <mxPoint x="56" y="336" as="sourcePoint" />
            <mxPoint x="240" y="468" as="targetPoint" />
            <Array as="points">
              <mxPoint x="56" y="468" />
            </Array>
          </mxGeometry>
        </mxCell>
        <mxCell id="lKmiFkmc8dkFFEs9oPCB-13" value="" style="endArrow=classic;html=1;rounded=0;strokeWidth=4;strokeColor=#7EA6E0;dashed=1;" edge="1" parent="1">
          <mxGeometry width="50" height="50" relative="1" as="geometry">
            <mxPoint x="-108" y="282" as="sourcePoint" />
            <mxPoint x="-8" y="282" as="targetPoint" />
          </mxGeometry>
        </mxCell>
        <mxCell id="lKmiFkmc8dkFFEs9oPCB-14" value="" style="endArrow=classic;html=1;rounded=0;strokeWidth=4;strokeColor=#7EA6E0;dashed=1;" edge="1" parent="1">
          <mxGeometry width="50" height="50" relative="1" as="geometry">
            <mxPoint x="-80" y="215" as="sourcePoint" />
            <mxPoint x="20" y="215" as="targetPoint" />
          </mxGeometry>
        </mxCell>
        <mxCell id="lKmiFkmc8dkFFEs9oPCB-15" value="" style="endArrow=classic;html=1;rounded=0;strokeWidth=4;strokeColor=#7EA6E0;dashed=1;" edge="1" parent="1">
          <mxGeometry width="50" height="50" relative="1" as="geometry">
            <mxPoint x="-40" y="174" as="sourcePoint" />
            <mxPoint x="60" y="174" as="targetPoint" />
          </mxGeometry>
        </mxCell>
        <mxCell id="lKmiFkmc8dkFFEs9oPCB-16" value="" style="rounded=0;whiteSpace=wrap;html=1;strokeWidth=4;fontSize=16;fontStyle=1;strokeColor=#7EA6E0;" vertex="1" parent="1">
          <mxGeometry x="754" y="179" width="100" height="88" as="geometry" />
        </mxCell>
        <mxCell id="lKmiFkmc8dkFFEs9oPCB-17" value="" style="rounded=0;whiteSpace=wrap;html=1;strokeWidth=4;fontSize=16;fontStyle=1;strokeColor=#7EA6E0;" vertex="1" parent="1">
          <mxGeometry x="724" y="223" width="100" height="88" as="geometry" />
        </mxCell>
        <mxCell id="lKmiFkmc8dkFFEs9oPCB-18" value="&lt;div&gt;EGRESS &lt;br&gt;&lt;/div&gt;&lt;div&gt;QUEUES&lt;br&gt;&lt;/div&gt;" style="rounded=0;whiteSpace=wrap;html=1;strokeWidth=4;fontSize=16;fontStyle=1;strokeColor=#7EA6E0;" vertex="1" parent="1">
          <mxGeometry x="690" y="262" width="100" height="88" as="geometry" />
        </mxCell>
        <mxCell id="lKmiFkmc8dkFFEs9oPCB-19" value="" style="endArrow=classic;html=1;rounded=0;strokeWidth=4;strokeColor=#7EA6E0;dashed=1;" edge="1" parent="1">
          <mxGeometry width="50" height="50" relative="1" as="geometry">
            <mxPoint x="582" y="302" as="sourcePoint" />
            <mxPoint x="682" y="302" as="targetPoint" />
          </mxGeometry>
        </mxCell>
        <mxCell id="lKmiFkmc8dkFFEs9oPCB-20" value="" style="endArrow=classic;html=1;rounded=0;strokeWidth=4;strokeColor=#7EA6E0;dashed=1;" edge="1" parent="1">
          <mxGeometry width="50" height="50" relative="1" as="geometry">
            <mxPoint x="590" y="120" as="sourcePoint" />
            <mxPoint x="710" y="230" as="targetPoint" />
          </mxGeometry>
        </mxCell>
        <mxCell id="lKmiFkmc8dkFFEs9oPCB-21" value="" style="endArrow=classic;html=1;rounded=0;strokeWidth=4;strokeColor=#7EA6E0;dashed=1;" edge="1" parent="1">
          <mxGeometry width="50" height="50" relative="1" as="geometry">
            <mxPoint x="800" y="352" as="sourcePoint" />
            <mxPoint x="900" y="352" as="targetPoint" />
          </mxGeometry>
        </mxCell>
        <mxCell id="lKmiFkmc8dkFFEs9oPCB-22" value="" style="endArrow=classic;html=1;rounded=0;strokeWidth=4;strokeColor=#7EA6E0;dashed=1;" edge="1" parent="1">
          <mxGeometry width="50" height="50" relative="1" as="geometry">
            <mxPoint x="828" y="285" as="sourcePoint" />
            <mxPoint x="928" y="285" as="targetPoint" />
          </mxGeometry>
        </mxCell>
        <mxCell id="lKmiFkmc8dkFFEs9oPCB-23" value="" style="endArrow=classic;html=1;rounded=0;strokeWidth=4;strokeColor=#7EA6E0;dashed=1;" edge="1" parent="1">
          <mxGeometry width="50" height="50" relative="1" as="geometry">
            <mxPoint x="868" y="244" as="sourcePoint" />
            <mxPoint x="968" y="244" as="targetPoint" />
          </mxGeometry>
        </mxCell>
        <mxCell id="lKmiFkmc8dkFFEs9oPCB-24" value="" style="endArrow=classic;html=1;rounded=0;strokeWidth=4;strokeColor=#7EA6E0;dashed=1;" edge="1" parent="1">
          <mxGeometry width="50" height="50" relative="1" as="geometry">
            <mxPoint x="590" y="480" as="sourcePoint" />
            <mxPoint x="750" y="360" as="targetPoint" />
            <Array as="points">
              <mxPoint x="750" y="480" />
            </Array>
          </mxGeometry>
        </mxCell>
        <mxCell id="lKmiFkmc8dkFFEs9oPCB-25" value="&lt;div&gt;RX&lt;/div&gt;&lt;div&gt;SWITCH&lt;/div&gt;&lt;div&gt;PORTS&lt;br&gt;&lt;/div&gt;" style="text;html=1;strokeColor=none;fillColor=none;align=center;verticalAlign=middle;whiteSpace=wrap;rounded=0;fontSize=16;fontStyle=1" vertex="1" parent="1">
          <mxGeometry x="-180" y="232" width="60" height="30" as="geometry" />
        </mxCell>
        <mxCell id="lKmiFkmc8dkFFEs9oPCB-26" value="" style="endArrow=classic;html=1;rounded=0;" edge="1" parent="1">
          <mxGeometry width="50" height="50" relative="1" as="geometry">
            <mxPoint x="360" y="400" as="sourcePoint" />
            <mxPoint x="410" y="350" as="targetPoint" />
          </mxGeometry>
        </mxCell>
        <mxCell id="lKmiFkmc8dkFFEs9oPCB-27" value="&lt;div&gt;TX&lt;/div&gt;&lt;div&gt;SWITCH&lt;/div&gt;&lt;div&gt;PORTS&lt;br&gt;&lt;/div&gt;" style="text;html=1;strokeColor=none;fillColor=none;align=center;verticalAlign=middle;whiteSpace=wrap;rounded=0;fontSize=16;fontStyle=1" vertex="1" parent="1">
          <mxGeometry x="980" y="262" width="60" height="30" as="geometry" />
        </mxCell>
      </root>
    </mxGraphModel>
  </diagram>
</mxfile>
